<svg width="1710" height="885" viewBox="0 0 1710 885" fill="none" xmlns="http://www.w3.org/2000/svg">
<g filter="url(#filter0_d_146_25)">
<path fill-rule="evenodd" clip-rule="evenodd" d="M344.209 442.233C344.209 427.027 326.601 416.907 291.383 396.667L103.024 288.414C68.0173 268.296 50.5139 258.236 37.3977 265.826C24.2814 273.416 24.2814 293.604 24.2814 333.98L24.2814 550.485C24.2814 590.861 24.2814 611.049 37.3976 618.639C50.5139 626.229 68.0173 616.17 103.024 596.051L291.383 487.799C326.601 467.559 344.209 457.439 344.209 442.233ZM298.235 442.364C298.235 437.324 292.415 433.964 280.776 427.245L243.845 405.924C235.178 400.92 230.845 398.418 226.094 398.455C221.344 398.492 217.05 401.061 208.462 406.199L143.434 445.101C136.405 449.307 132.89 451.409 130.236 449.904C127.582 448.399 127.582 444.304 127.582 436.112V390.678C127.582 382.275 127.582 378.073 130.293 376.58C133.003 375.087 136.554 377.333 143.656 381.825L172.397 400.003C175.417 401.913 176.927 402.868 178.587 402.784C180.248 402.7 181.657 401.593 184.477 399.38C193.709 392.134 198.324 388.512 197.996 383.888C197.667 379.265 192.602 376.34 182.472 370.492L150.682 352.139C127.405 338.701 115.766 331.981 107.037 337.021C98.308 342.061 98.308 355.5 98.308 382.378L98.308 459.133C98.308 479.573 98.308 489.793 104.932 493.557C111.557 497.322 120.337 492.092 137.897 481.632L217.505 434.211C220.458 432.453 221.934 431.573 223.539 431.667C225.143 431.76 226.507 432.805 229.235 434.895L231.922 436.953C237.451 441.188 240.216 443.305 240.064 446.069C239.911 448.832 236.931 450.633 230.97 454.234L95.2997 536.203C88.2571 540.458 84.7359 542.585 82.0719 541.082C79.408 539.579 79.408 535.465 79.408 527.237L79.408 317.039C79.408 314.087 79.408 312.612 78.7063 311.396C78.0045 310.181 76.7265 309.443 74.1703 307.967L68.6601 304.786C61.6768 300.755 58.1852 298.739 55.5665 300.251C52.9479 301.763 52.9479 305.794 52.9479 313.858L52.9479 558.775C52.9479 572.214 52.9479 578.934 57.3123 581.454C61.6768 583.974 67.4961 580.614 79.1348 573.895L280.776 457.484C292.415 450.764 298.235 447.404 298.235 442.364Z" fill="url(#paint0_linear_146_25)"/>
<path fill-rule="evenodd" clip-rule="evenodd" d="M344.209 442.233C344.209 427.027 326.601 416.907 291.383 396.667L103.024 288.414C68.0173 268.296 50.5139 258.236 37.3977 265.826C24.2814 273.416 24.2814 293.604 24.2814 333.98L24.2814 550.485C24.2814 590.861 24.2814 611.049 37.3976 618.639C50.5139 626.229 68.0173 616.17 103.024 596.051L291.383 487.799C326.601 467.559 344.209 457.439 344.209 442.233ZM298.235 442.364C298.235 437.324 292.415 433.964 280.776 427.245L243.845 405.924C235.178 400.92 230.845 398.418 226.094 398.455C221.344 398.492 217.05 401.061 208.462 406.199L143.434 445.101C136.405 449.307 132.89 451.409 130.236 449.904C127.582 448.399 127.582 444.304 127.582 436.112V390.678C127.582 382.275 127.582 378.073 130.293 376.58C133.003 375.087 136.554 377.333 143.656 381.825L172.397 400.003C175.417 401.913 176.927 402.868 178.587 402.784C180.248 402.7 181.657 401.593 184.477 399.38C193.709 392.134 198.324 388.512 197.996 383.888C197.667 379.265 192.602 376.34 182.472 370.492L150.682 352.139C127.405 338.701 115.766 331.981 107.037 337.021C98.308 342.061 98.308 355.5 98.308 382.378L98.308 459.133C98.308 479.573 98.308 489.793 104.932 493.557C111.557 497.322 120.337 492.092 137.897 481.632L217.505 434.211C220.458 432.453 221.934 431.573 223.539 431.667C225.143 431.76 226.507 432.805 229.235 434.895L231.922 436.953C237.451 441.188 240.216 443.305 240.064 446.069C239.911 448.832 236.931 450.633 230.97 454.234L95.2997 536.203C88.2571 540.458 84.7359 542.585 82.0719 541.082C79.408 539.579 79.408 535.465 79.408 527.237L79.408 317.039C79.408 314.087 79.408 312.612 78.7063 311.396C78.0045 310.181 76.7265 309.443 74.1703 307.967L68.6601 304.786C61.6768 300.755 58.1852 298.739 55.5665 300.251C52.9479 301.763 52.9479 305.794 52.9479 313.858L52.9479 558.775C52.9479 572.214 52.9479 578.934 57.3123 581.454C61.6768 583.974 67.4961 580.614 79.1348 573.895L280.776 457.484C292.415 450.764 298.235 447.404 298.235 442.364Z" fill="white"/>
<path d="M451.048 323.163C451.048 321.048 451.048 319.99 451.167 319.102C451.971 313.117 456.678 308.41 462.663 307.606C463.551 307.487 464.608 307.487 466.724 307.487V307.487C468.84 307.487 469.898 307.487 470.786 307.606C476.77 308.41 481.478 313.117 482.281 319.102C482.401 319.99 482.401 321.048 482.401 323.163V436.383C482.401 442.699 482.401 445.857 484.363 447.819C486.325 449.781 489.483 449.781 495.799 449.781H557.407C564.733 449.781 570.671 455.72 570.671 463.046V463.046C570.671 470.372 564.733 476.311 557.407 476.311H477.845C465.213 476.311 458.896 476.311 454.972 472.386C451.048 468.462 451.048 462.146 451.048 449.513V323.163Z" fill="url(#paint1_linear_146_25)"/>
<path d="M451.048 323.163C451.048 321.048 451.048 319.99 451.167 319.102C451.971 313.117 456.678 308.41 462.663 307.606C463.551 307.487 464.608 307.487 466.724 307.487V307.487C468.84 307.487 469.898 307.487 470.786 307.606C476.77 308.41 481.478 313.117 482.281 319.102C482.401 319.99 482.401 321.048 482.401 323.163V436.383C482.401 442.699 482.401 445.857 484.363 447.819C486.325 449.781 489.483 449.781 495.799 449.781H557.407C564.733 449.781 570.671 455.72 570.671 463.046V463.046C570.671 470.372 564.733 476.311 557.407 476.311H477.845C465.213 476.311 458.896 476.311 454.972 472.386C451.048 468.462 451.048 462.146 451.048 449.513V323.163Z" fill="white"/>
<path d="M592.53 362.596C592.53 361.04 592.53 360.263 592.594 359.608C593.221 353.246 598.254 348.213 604.615 347.587C605.27 347.522 606.048 347.522 607.603 347.522V347.522C609.159 347.522 609.937 347.522 610.592 347.587C616.953 348.213 621.986 353.246 622.613 359.608C622.677 360.263 622.677 361.04 622.677 362.596V461.237C622.677 462.793 622.677 463.57 622.613 464.225C621.986 470.587 616.953 475.62 610.592 476.246C609.937 476.311 609.159 476.311 607.603 476.311V476.311C606.048 476.311 605.27 476.311 604.615 476.246C598.254 475.62 593.221 470.587 592.594 464.225C592.53 463.57 592.53 462.793 592.53 461.237V362.596ZM607.724 326.299C602.257 326.299 597.675 324.61 593.977 321.234C590.279 317.697 588.43 313.355 588.43 308.21C588.43 303.065 590.279 298.804 593.977 295.428C597.675 291.891 602.257 290.122 607.724 290.122C613.191 290.122 617.773 291.81 621.471 295.187C625.169 298.402 627.018 302.502 627.018 307.487C627.018 312.793 625.169 317.295 621.471 320.993C617.934 324.53 613.352 326.299 607.724 326.299Z" fill="url(#paint2_linear_146_25)"/>
<path d="M592.53 362.596C592.53 361.04 592.53 360.263 592.594 359.608C593.221 353.246 598.254 348.213 604.615 347.587C605.27 347.522 606.048 347.522 607.603 347.522V347.522C609.159 347.522 609.937 347.522 610.592 347.587C616.953 348.213 621.986 353.246 622.613 359.608C622.677 360.263 622.677 361.04 622.677 362.596V461.237C622.677 462.793 622.677 463.57 622.613 464.225C621.986 470.587 616.953 475.62 610.592 476.246C609.937 476.311 609.159 476.311 607.603 476.311V476.311C606.048 476.311 605.27 476.311 604.615 476.246C598.254 475.62 593.221 470.587 592.594 464.225C592.53 463.57 592.53 462.793 592.53 461.237V362.596ZM607.724 326.299C602.257 326.299 597.675 324.61 593.977 321.234C590.279 317.697 588.43 313.355 588.43 308.21C588.43 303.065 590.279 298.804 593.977 295.428C597.675 291.891 602.257 290.122 607.724 290.122C613.191 290.122 617.773 291.81 621.471 295.187C625.169 298.402 627.018 302.502 627.018 307.487C627.018 312.793 625.169 317.295 621.471 320.993C617.934 324.53 613.352 326.299 607.724 326.299Z" fill="white"/>
<path d="M762.643 347.522C772.2 347.522 778.643 357.295 774.876 366.078L733.735 462.014C731.175 467.985 729.894 470.97 727.627 472.967C726.692 473.79 725.647 474.479 724.522 475.014C721.793 476.311 718.545 476.311 712.048 476.311V476.311C705.552 476.311 702.303 476.311 699.574 475.014C698.449 474.479 697.404 473.79 696.47 472.967C694.202 470.97 692.922 467.985 690.361 462.014L649.853 367.554C649.341 366.359 649.084 365.761 648.927 365.308C646.042 356.982 651.841 348.186 660.63 347.556C661.108 347.522 661.758 347.522 663.059 347.522V347.522C663.679 347.522 663.989 347.522 664.273 347.534C669.256 347.746 673.708 350.708 675.83 355.221C675.951 355.478 676.071 355.764 676.31 356.336L712.651 443.028L750.423 355.556C752.529 350.68 757.332 347.522 762.643 347.522V347.522Z" fill="url(#paint3_linear_146_25)"/>
<path d="M762.643 347.522C772.2 347.522 778.643 357.295 774.876 366.078L733.735 462.014C731.175 467.985 729.894 470.97 727.627 472.967C726.692 473.79 725.647 474.479 724.522 475.014C721.793 476.311 718.545 476.311 712.048 476.311V476.311C705.552 476.311 702.303 476.311 699.574 475.014C698.449 474.479 697.404 473.79 696.47 472.967C694.202 470.97 692.922 467.985 690.361 462.014L649.853 367.554C649.341 366.359 649.084 365.761 648.927 365.308C646.042 356.982 651.841 348.186 660.63 347.556C661.108 347.522 661.758 347.522 663.059 347.522V347.522C663.679 347.522 663.989 347.522 664.273 347.534C669.256 347.746 673.708 350.708 675.83 355.221C675.951 355.478 676.071 355.764 676.31 356.336L712.651 443.028L750.423 355.556C752.529 350.68 757.332 347.522 762.643 347.522V347.522Z" fill="white"/>
<path d="M859.402 452.434C868.352 452.434 876.348 450.525 883.389 446.707C889.929 443.162 898.506 443.269 903.347 448.917V448.917C907.367 453.606 907.553 460.655 902.739 464.524C898.597 467.852 893.879 470.575 888.584 472.693C879.741 476.23 869.772 477.999 858.678 477.999C844.529 477.999 832.068 475.185 821.296 469.558C810.523 463.93 802.162 456.132 796.213 446.164C790.425 436.034 787.531 424.618 787.531 411.916C787.531 399.375 790.345 388.12 795.972 378.152C801.76 368.022 809.639 360.144 819.607 354.516C829.737 348.889 841.153 346.075 853.855 346.075C865.913 346.075 876.847 348.728 886.655 354.034C896.623 359.179 904.502 366.656 910.29 376.463C912.583 380.285 914.421 384.371 915.806 388.722C918.448 397.024 919.769 401.175 916.708 406.343C913.647 411.511 908.204 412.576 897.319 414.705L820.331 429.764C823.386 437.16 828.29 442.787 835.043 446.646C841.796 450.505 849.915 452.434 859.402 452.434ZM853.855 370.193C842.76 370.193 833.757 373.81 826.843 381.046C820.09 388.281 816.713 398.009 816.713 410.228V410.228C816.713 410.353 816.827 410.448 816.95 410.424L889.549 396.481C887.459 388.603 883.198 382.252 876.766 377.428C870.496 372.605 862.859 370.193 853.855 370.193Z" fill="url(#paint4_linear_146_25)"/>
<path d="M859.402 452.434C868.352 452.434 876.348 450.525 883.389 446.707C889.929 443.162 898.506 443.269 903.347 448.917V448.917C907.367 453.606 907.553 460.655 902.739 464.524C898.597 467.852 893.879 470.575 888.584 472.693C879.741 476.23 869.772 477.999 858.678 477.999C844.529 477.999 832.068 475.185 821.296 469.558C810.523 463.93 802.162 456.132 796.213 446.164C790.425 436.034 787.531 424.618 787.531 411.916C787.531 399.375 790.345 388.12 795.972 378.152C801.76 368.022 809.639 360.144 819.607 354.516C829.737 348.889 841.153 346.075 853.855 346.075C865.913 346.075 876.847 348.728 886.655 354.034C896.623 359.179 904.502 366.656 910.29 376.463C912.583 380.285 914.421 384.371 915.806 388.722C918.448 397.024 919.769 401.175 916.708 406.343C913.647 411.511 908.204 412.576 897.319 414.705L820.331 429.764C823.386 437.16 828.29 442.787 835.043 446.646C841.796 450.505 849.915 452.434 859.402 452.434ZM853.855 370.193C842.76 370.193 833.757 373.81 826.843 381.046C820.09 388.281 816.713 398.009 816.713 410.228V410.228C816.713 410.353 816.827 410.448 816.95 410.424L889.549 396.481C887.459 388.603 883.198 382.252 876.766 377.428C870.496 372.605 862.859 370.193 853.855 370.193Z" fill="white"/>
<path d="M1069.82 478.722C1056.8 478.722 1044.17 476.873 1031.95 473.175C1023.91 470.709 1016.98 467.707 1011.15 464.168C1006.2 461.161 1004.87 454.843 1007.22 449.552V449.552C1010.71 441.721 1020.74 439.253 1028.44 443.019C1031.87 444.697 1035.53 446.228 1039.43 447.611C1049.56 450.987 1059.69 452.675 1069.82 452.675C1082.36 452.675 1091.69 450.666 1097.8 446.646C1104.07 442.626 1107.2 437.32 1107.2 430.728C1107.2 425.905 1105.43 421.965 1101.9 418.911C1098.52 415.695 1094.18 413.203 1088.87 411.434C1083.57 409.665 1076.33 407.656 1067.17 405.405C1054.3 402.35 1043.85 399.295 1035.81 396.24C1027.93 393.185 1021.1 388.442 1015.31 382.011C1009.69 375.418 1006.87 366.575 1006.87 355.481C1006.87 346.156 1009.36 337.714 1014.35 330.157C1019.49 322.44 1027.13 316.33 1037.26 311.828C1047.55 307.326 1060.09 305.075 1074.88 305.075C1085.17 305.075 1095.3 306.361 1105.27 308.934C1111.2 310.464 1116.64 312.391 1121.6 314.717C1127.33 317.402 1129.37 324.237 1126.99 330.101V330.101C1123.93 337.632 1114.91 340.612 1107.35 337.63C1104.29 336.425 1101.19 335.382 1098.04 334.499C1090 332.248 1082.2 331.122 1074.64 331.122C1062.26 331.122 1053.02 333.212 1046.91 337.393C1040.96 341.573 1037.98 347.12 1037.98 354.034C1037.98 358.858 1039.67 362.797 1043.05 365.852C1046.59 368.907 1051.01 371.318 1056.31 373.087C1061.62 374.856 1068.85 376.865 1078.02 379.116C1090.56 382.011 1100.85 385.065 1108.89 388.281C1116.93 391.336 1123.76 396.079 1129.39 402.511C1135.18 408.942 1138.07 417.624 1138.07 428.558C1138.07 437.883 1135.5 446.324 1130.35 453.881C1125.37 461.438 1117.73 467.468 1107.44 471.97C1097.15 476.471 1084.61 478.722 1069.82 478.722Z" fill="url(#paint5_linear_146_25)"/>
<path d="M1069.82 478.722C1056.8 478.722 1044.17 476.873 1031.95 473.175C1023.91 470.709 1016.98 467.707 1011.15 464.168C1006.2 461.161 1004.87 454.843 1007.22 449.552V449.552C1010.71 441.721 1020.74 439.253 1028.44 443.019C1031.87 444.697 1035.53 446.228 1039.43 447.611C1049.56 450.987 1059.69 452.675 1069.82 452.675C1082.36 452.675 1091.69 450.666 1097.8 446.646C1104.07 442.626 1107.2 437.32 1107.2 430.728C1107.2 425.905 1105.43 421.965 1101.9 418.911C1098.52 415.695 1094.18 413.203 1088.87 411.434C1083.57 409.665 1076.33 407.656 1067.17 405.405C1054.3 402.35 1043.85 399.295 1035.81 396.24C1027.93 393.185 1021.1 388.442 1015.31 382.011C1009.69 375.418 1006.87 366.575 1006.87 355.481C1006.87 346.156 1009.36 337.714 1014.35 330.157C1019.49 322.44 1027.13 316.33 1037.26 311.828C1047.55 307.326 1060.09 305.075 1074.88 305.075C1085.17 305.075 1095.3 306.361 1105.27 308.934C1111.2 310.464 1116.64 312.391 1121.6 314.717C1127.33 317.402 1129.37 324.237 1126.99 330.101V330.101C1123.93 337.632 1114.91 340.612 1107.35 337.63C1104.29 336.425 1101.19 335.382 1098.04 334.499C1090 332.248 1082.2 331.122 1074.64 331.122C1062.26 331.122 1053.02 333.212 1046.91 337.393C1040.96 341.573 1037.98 347.12 1037.98 354.034C1037.98 358.858 1039.67 362.797 1043.05 365.852C1046.59 368.907 1051.01 371.318 1056.31 373.087C1061.62 374.856 1068.85 376.865 1078.02 379.116C1090.56 382.011 1100.85 385.065 1108.89 388.281C1116.93 391.336 1123.76 396.079 1129.39 402.511C1135.18 408.942 1138.07 417.624 1138.07 428.558C1138.07 437.883 1135.5 446.324 1130.35 453.881C1125.37 461.438 1117.73 467.468 1107.44 471.97C1097.15 476.471 1084.61 478.722 1069.82 478.722Z" fill="white"/>
<path d="M1239.34 346.075C1255.58 346.075 1268.61 350.818 1278.41 360.305C1288.22 369.791 1293.13 383.86 1293.13 402.511V461.237C1293.13 462.793 1293.13 463.57 1293.06 464.225C1292.44 470.587 1287.4 475.62 1281.04 476.246C1280.39 476.311 1279.61 476.311 1278.05 476.311V476.311C1276.5 476.311 1275.72 476.311 1275.06 476.246C1268.7 475.62 1263.67 470.587 1263.04 464.225C1262.98 463.57 1262.98 462.793 1262.98 461.237V406.369C1262.98 395.114 1260.33 386.673 1255.02 381.046C1249.71 375.258 1242.16 372.363 1232.35 372.363C1221.26 372.363 1212.49 375.74 1206.06 382.493C1199.63 389.085 1196.41 398.652 1196.41 411.193V461.237C1196.41 462.793 1196.41 463.57 1196.35 464.225C1195.72 470.587 1190.69 475.62 1184.33 476.246C1183.67 476.311 1182.9 476.311 1181.34 476.311V476.311C1179.79 476.311 1179.01 476.311 1178.35 476.246C1171.99 475.62 1166.96 470.587 1166.33 464.225C1166.27 463.57 1166.27 462.793 1166.27 461.237V312.431C1166.27 310.876 1166.27 310.098 1166.33 309.443C1166.96 303.081 1171.99 298.048 1178.35 297.422C1179.01 297.357 1179.79 297.357 1181.34 297.357V297.357C1182.9 297.357 1183.67 297.357 1184.33 297.422C1190.69 298.048 1195.72 303.081 1196.35 309.443C1196.41 310.098 1196.41 310.876 1196.41 312.431V362.475C1201.4 357.169 1207.51 353.15 1214.74 350.416C1222.14 347.522 1230.34 346.075 1239.34 346.075Z" fill="url(#paint6_linear_146_25)"/>
<path d="M1239.34 346.075C1255.58 346.075 1268.61 350.818 1278.41 360.305C1288.22 369.791 1293.13 383.86 1293.13 402.511V461.237C1293.13 462.793 1293.13 463.57 1293.06 464.225C1292.44 470.587 1287.4 475.62 1281.04 476.246C1280.39 476.311 1279.61 476.311 1278.05 476.311V476.311C1276.5 476.311 1275.72 476.311 1275.06 476.246C1268.7 475.62 1263.67 470.587 1263.04 464.225C1262.98 463.57 1262.98 462.793 1262.98 461.237V406.369C1262.98 395.114 1260.33 386.673 1255.02 381.046C1249.71 375.258 1242.16 372.363 1232.35 372.363C1221.26 372.363 1212.49 375.74 1206.06 382.493C1199.63 389.085 1196.41 398.652 1196.41 411.193V461.237C1196.41 462.793 1196.41 463.57 1196.35 464.225C1195.72 470.587 1190.69 475.62 1184.33 476.246C1183.67 476.311 1182.9 476.311 1181.34 476.311V476.311C1179.79 476.311 1179.01 476.311 1178.35 476.246C1171.99 475.62 1166.96 470.587 1166.33 464.225C1166.27 463.57 1166.27 462.793 1166.27 461.237V312.431C1166.27 310.876 1166.27 310.098 1166.33 309.443C1166.96 303.081 1171.99 298.048 1178.35 297.422C1179.01 297.357 1179.79 297.357 1181.34 297.357V297.357C1182.9 297.357 1183.67 297.357 1184.33 297.422C1190.69 298.048 1195.72 303.081 1196.35 309.443C1196.41 310.098 1196.41 310.876 1196.41 312.431V362.475C1201.4 357.169 1207.51 353.15 1214.74 350.416C1222.14 347.522 1230.34 346.075 1239.34 346.075Z" fill="white"/>
<path d="M1390.43 477.999C1377.41 477.999 1365.67 475.185 1355.22 469.558C1344.77 463.93 1336.57 456.132 1330.62 446.164C1324.83 436.034 1321.94 424.618 1321.94 411.916C1321.94 399.214 1324.83 387.879 1330.62 377.91C1336.57 367.942 1344.77 360.144 1355.22 354.516C1365.67 348.889 1377.41 346.075 1390.43 346.075C1403.61 346.075 1415.43 348.889 1425.88 354.516C1436.33 360.144 1444.45 367.942 1450.24 377.91C1456.19 387.879 1459.17 399.214 1459.17 411.916C1459.17 424.618 1456.19 436.034 1450.24 446.164C1444.45 456.132 1436.33 463.93 1425.88 469.558C1415.43 475.185 1403.61 477.999 1390.43 477.999ZM1390.43 452.193C1401.52 452.193 1410.69 448.495 1417.92 441.099C1425.16 433.703 1428.78 423.975 1428.78 411.916C1428.78 399.858 1425.16 390.13 1417.92 382.734C1410.69 375.338 1401.52 371.64 1390.43 371.64C1379.34 371.64 1370.17 375.338 1362.94 382.734C1355.86 390.13 1352.32 399.858 1352.32 411.916C1352.32 423.975 1355.86 433.703 1362.94 441.099C1370.17 448.495 1379.34 452.193 1390.43 452.193Z" fill="url(#paint7_linear_146_25)"/>
<path d="M1390.43 477.999C1377.41 477.999 1365.67 475.185 1355.22 469.558C1344.77 463.93 1336.57 456.132 1330.62 446.164C1324.83 436.034 1321.94 424.618 1321.94 411.916C1321.94 399.214 1324.83 387.879 1330.62 377.91C1336.57 367.942 1344.77 360.144 1355.22 354.516C1365.67 348.889 1377.41 346.075 1390.43 346.075C1403.61 346.075 1415.43 348.889 1425.88 354.516C1436.33 360.144 1444.45 367.942 1450.24 377.91C1456.19 387.879 1459.17 399.214 1459.17 411.916C1459.17 424.618 1456.19 436.034 1450.24 446.164C1444.45 456.132 1436.33 463.93 1425.88 469.558C1415.43 475.185 1403.61 477.999 1390.43 477.999ZM1390.43 452.193C1401.52 452.193 1410.69 448.495 1417.92 441.099C1425.16 433.703 1428.78 423.975 1428.78 411.916C1428.78 399.858 1425.16 390.13 1417.92 382.734C1410.69 375.338 1401.52 371.64 1390.43 371.64C1379.34 371.64 1370.17 375.338 1362.94 382.734C1355.86 390.13 1352.32 399.858 1352.32 411.916C1352.32 423.975 1355.86 433.703 1362.94 441.099C1370.17 448.495 1379.34 452.193 1390.43 452.193Z" fill="white"/>
<path d="M1670.93 347.522C1672.48 347.522 1673.26 347.522 1673.91 347.587C1680.28 348.213 1685.31 353.246 1685.94 359.608C1686 360.263 1686 361.04 1686 362.596V418.669C1686 437.481 1681.1 452.113 1671.29 462.564C1661.48 472.854 1647.41 477.999 1629.08 477.999C1609.31 477.999 1595.08 471.326 1586.39 457.981C1581.89 464.734 1576.1 469.799 1569.03 473.175C1562.12 476.391 1553.67 477.999 1543.71 477.999C1525.38 477.999 1511.31 472.854 1501.5 462.564C1491.85 452.113 1487.03 437.481 1487.03 418.669V362.596C1487.03 361.04 1487.03 360.263 1487.09 359.608C1487.72 353.246 1492.75 348.213 1499.11 347.587C1499.77 347.522 1500.55 347.522 1502.1 347.522V347.522C1503.66 347.522 1504.44 347.522 1505.09 347.587C1511.45 348.213 1516.48 353.246 1517.11 359.608C1517.18 360.263 1517.18 361.04 1517.18 362.596V416.016C1517.18 428.236 1519.27 437.24 1523.45 443.028C1527.79 448.817 1534.62 451.711 1543.95 451.711C1553.27 451.711 1560.19 448.817 1564.69 443.028C1569.19 437.079 1571.44 428.075 1571.44 416.016V362.596C1571.44 361.04 1571.44 360.263 1571.51 359.608C1572.13 353.246 1577.16 348.213 1583.53 347.587C1584.18 347.522 1584.96 347.522 1586.51 347.522V347.522C1588.07 347.522 1588.85 347.522 1589.5 347.587C1595.86 348.213 1600.9 353.246 1601.52 359.608C1601.59 360.263 1601.59 361.04 1601.59 362.596V416.016C1601.59 428.075 1603.84 437.079 1608.34 443.028C1612.84 448.817 1619.76 451.711 1629.08 451.711C1638.41 451.711 1645.16 448.817 1649.34 443.028C1653.68 437.24 1655.85 428.236 1655.85 416.016V362.596C1655.85 361.04 1655.85 360.263 1655.92 359.608C1656.54 353.246 1661.58 348.213 1667.94 347.587C1668.59 347.522 1669.37 347.522 1670.93 347.522V347.522Z" fill="url(#paint8_linear_146_25)"/>
<path d="M1670.93 347.522C1672.48 347.522 1673.26 347.522 1673.91 347.587C1680.28 348.213 1685.31 353.246 1685.94 359.608C1686 360.263 1686 361.04 1686 362.596V418.669C1686 437.481 1681.1 452.113 1671.29 462.564C1661.48 472.854 1647.41 477.999 1629.08 477.999C1609.31 477.999 1595.08 471.326 1586.39 457.981C1581.89 464.734 1576.1 469.799 1569.03 473.175C1562.12 476.391 1553.67 477.999 1543.71 477.999C1525.38 477.999 1511.31 472.854 1501.5 462.564C1491.85 452.113 1487.03 437.481 1487.03 418.669V362.596C1487.03 361.04 1487.03 360.263 1487.09 359.608C1487.72 353.246 1492.75 348.213 1499.11 347.587C1499.77 347.522 1500.55 347.522 1502.1 347.522V347.522C1503.66 347.522 1504.44 347.522 1505.09 347.587C1511.45 348.213 1516.48 353.246 1517.11 359.608C1517.18 360.263 1517.18 361.04 1517.18 362.596V416.016C1517.18 428.236 1519.27 437.24 1523.45 443.028C1527.79 448.817 1534.62 451.711 1543.95 451.711C1553.27 451.711 1560.19 448.817 1564.69 443.028C1569.19 437.079 1571.44 428.075 1571.44 416.016V362.596C1571.44 361.04 1571.44 360.263 1571.51 359.608C1572.13 353.246 1577.16 348.213 1583.53 347.587C1584.18 347.522 1584.96 347.522 1586.51 347.522V347.522C1588.07 347.522 1588.85 347.522 1589.5 347.587C1595.86 348.213 1600.9 353.246 1601.52 359.608C1601.59 360.263 1601.59 361.04 1601.59 362.596V416.016C1601.59 428.075 1603.84 437.079 1608.34 443.028C1612.84 448.817 1619.76 451.711 1629.08 451.711C1638.41 451.711 1645.16 448.817 1649.34 443.028C1653.68 437.24 1655.85 428.236 1655.85 416.016V362.596C1655.85 361.04 1655.85 360.263 1655.92 359.608C1656.54 353.246 1661.58 348.213 1667.94 347.587C1668.59 347.522 1669.37 347.522 1670.93 347.522V347.522Z" fill="white"/>
</g>
<path fill-rule="evenodd" clip-rule="evenodd" d="M1002.7 522.085C996.891 527.898 996.891 537.253 996.891 555.963V575.808C996.891 594.518 996.891 603.874 1002.7 609.686C1008.52 615.499 1017.87 615.499 1036.58 615.499H1646.11C1664.82 615.499 1674.18 615.499 1679.99 609.686C1685.8 603.874 1685.8 594.518 1685.8 575.808V555.963C1685.8 537.253 1685.8 527.898 1679.99 522.085C1674.18 516.273 1664.82 516.273 1646.11 516.273H1036.58C1017.87 516.273 1008.52 516.273 1002.7 522.085ZM1065.01 543.052H1051.39V591.206H1087.98V580.405H1065.01V543.052ZM1128.39 580.681V553.577H1136.16V543.052H1106.93V553.577H1114.77V580.681H1106.93V591.206H1136.16V580.681H1128.39ZM1187.55 591.206L1208.19 543.052H1194.7L1181.36 574.421L1168.29 543.052H1153.57L1174.14 591.206H1187.55ZM1258.56 590.93C1262.09 590.105 1265.09 588.981 1267.57 587.56L1263.44 577.516C1261.38 578.754 1258.95 579.74 1256.15 580.474C1253.4 581.162 1250.71 581.506 1248.1 581.506C1244.43 581.506 1241.73 581.07 1239.98 580.199C1238.24 579.328 1237.37 578.112 1237.37 576.553C1237.37 575.086 1237.96 573.985 1239.16 573.251C1240.35 572.472 1242.12 572.082 1244.45 572.082H1258.97V561.694H1245.35C1241.36 561.694 1239.36 560.318 1239.36 557.567C1239.36 556.053 1240.17 554.884 1241.77 554.059C1243.38 553.187 1245.81 552.751 1249.06 552.751C1253.6 552.751 1258.01 553.692 1262.27 555.572L1265.99 545.391C1263.65 544.382 1260.94 543.579 1257.87 542.983C1254.8 542.387 1251.68 542.089 1248.51 542.089C1243.47 542.089 1239.23 542.754 1235.79 544.084C1232.35 545.414 1229.78 547.179 1228.08 549.381C1226.43 551.582 1225.61 554.013 1225.61 556.673C1225.61 558.736 1226.09 560.639 1227.05 562.382C1228.06 564.079 1229.5 565.409 1231.38 566.372C1228.95 567.427 1227.05 568.917 1225.67 570.843C1224.3 572.77 1223.61 574.994 1223.61 577.516C1223.61 580.405 1224.5 582.951 1226.29 585.152C1228.13 587.353 1230.83 589.073 1234.41 590.311C1238.03 591.55 1242.41 592.169 1247.55 592.169C1251.36 592.169 1255.02 591.756 1258.56 590.93ZM1330.21 590.724C1333.88 591.687 1337.67 592.169 1341.56 592.169C1346.15 592.169 1350.05 591.481 1353.26 590.105C1356.47 588.683 1358.88 586.803 1360.48 584.464C1362.09 582.125 1362.89 579.511 1362.89 576.622C1362.89 573.274 1362 570.637 1360.21 568.711C1358.46 566.739 1356.38 565.317 1353.95 564.446C1351.56 563.529 1348.54 562.68 1344.87 561.901C1341.61 561.213 1339.25 560.548 1337.78 559.906C1336.31 559.264 1335.58 558.301 1335.58 557.017C1335.58 555.732 1336.2 554.701 1337.44 553.921C1338.68 553.095 1340.65 552.683 1343.35 552.683C1347.66 552.683 1352.11 553.921 1356.7 556.397L1360.89 546.285C1358.56 544.909 1355.85 543.877 1352.78 543.19C1349.71 542.456 1346.59 542.089 1343.42 542.089C1338.79 542.089 1334.87 542.777 1331.66 544.153C1328.49 545.528 1326.11 547.409 1324.5 549.793C1322.9 552.132 1322.1 554.769 1322.1 557.704C1322.1 561.052 1322.97 563.712 1324.71 565.684C1326.45 567.656 1328.54 569.101 1330.97 570.018C1333.4 570.889 1336.43 571.715 1340.05 572.494C1343.35 573.228 1345.74 573.939 1347.21 574.627C1348.72 575.269 1349.48 576.278 1349.48 577.654C1349.48 580.268 1346.86 581.575 1341.63 581.575C1338.88 581.575 1336.08 581.139 1333.24 580.268C1330.4 579.396 1327.9 578.25 1325.74 576.828L1321.27 586.872C1323.56 588.477 1326.55 589.761 1330.21 590.724ZM1430.82 591.206V543.052H1417.2V561.144H1398.62V543.052H1385V591.206H1398.62V572.426H1417.2V591.206H1430.82ZM1490.71 544.841C1487.27 543.006 1483.28 542.089 1478.74 542.089C1474.2 542.089 1470.19 543.006 1466.7 544.841C1463.26 546.629 1460.58 549.266 1458.66 552.751C1456.78 556.191 1455.83 560.341 1455.83 565.203V591.206H1469.25V580.543H1488.03V591.206H1501.65V565.203C1501.65 560.341 1500.69 556.191 1498.76 552.751C1496.88 549.266 1494.2 546.629 1490.71 544.841ZM1488.03 564.033V570.018H1469.25V564.033C1469.25 560.502 1470.1 557.842 1471.79 556.053C1473.49 554.265 1475.78 553.371 1478.67 553.371C1481.52 553.371 1483.79 554.265 1485.48 556.053C1487.18 557.842 1488.03 560.502 1488.03 564.033ZM1540.31 578.41H1547.74L1556.47 591.206H1571.06L1560.67 576.072C1563.7 574.604 1566.01 572.586 1567.62 570.018C1569.27 567.404 1570.09 564.354 1570.09 560.869C1570.09 557.246 1569.22 554.104 1567.48 551.444C1565.74 548.739 1563.26 546.675 1560.05 545.253C1556.84 543.786 1553.06 543.052 1548.7 543.052H1526.69V591.206H1540.31V578.41ZM1554.2 555.641C1555.62 556.879 1556.33 558.622 1556.33 560.869C1556.33 563.116 1555.62 564.859 1554.2 566.097C1552.78 567.289 1550.67 567.885 1547.87 567.885H1540.31V553.783H1547.87C1550.67 553.783 1552.78 554.402 1554.2 555.641ZM1625.83 590.93C1629.36 590.105 1632.36 588.981 1634.84 587.56L1630.71 577.516C1628.65 578.754 1626.22 579.74 1623.42 580.474C1620.67 581.162 1617.99 581.506 1615.37 581.506C1611.7 581.506 1609 581.07 1607.26 580.199C1605.51 579.328 1604.64 578.112 1604.64 576.553C1604.64 575.086 1605.24 573.985 1606.43 573.251C1607.62 572.472 1609.39 572.082 1611.73 572.082H1626.24V561.694H1612.62C1608.63 561.694 1606.64 560.318 1606.64 557.567C1606.64 556.053 1607.44 554.884 1609.04 554.059C1610.65 553.187 1613.08 552.751 1616.34 552.751C1620.88 552.751 1625.28 553.692 1629.54 555.572L1633.26 545.391C1630.92 544.382 1628.21 543.579 1625.14 542.983C1622.07 542.387 1618.95 542.089 1615.79 542.089C1610.74 542.089 1606.5 542.754 1603.06 544.084C1599.62 545.414 1597.05 547.179 1595.36 549.381C1593.7 551.582 1592.88 554.013 1592.88 556.673C1592.88 558.736 1593.36 560.639 1594.32 562.382C1595.33 564.079 1596.78 565.409 1598.66 566.372C1596.23 567.427 1594.32 568.917 1592.95 570.843C1591.57 572.77 1590.88 574.994 1590.88 577.516C1590.88 580.405 1591.78 582.951 1593.57 585.152C1595.4 587.353 1598.11 589.073 1601.68 590.311C1605.31 591.55 1609.69 592.169 1614.82 592.169C1618.63 592.169 1622.3 591.756 1625.83 590.93Z" fill="white"/>
<defs>
<filter id="filter0_d_146_25" x="24.2814" y="263.297" width="1661.72" height="369.604" filterUnits="userSpaceOnUse" color-interpolation-filters="sRGB">
<feFlood flood-opacity="0" result="BackgroundImageFix"/>
<feColorMatrix in="SourceAlpha" type="matrix" values="0 0 0 0 0 0 0 0 0 0 0 0 0 0 0 0 0 0 127 0" result="hardAlpha"/>
<feOffset dy="11.7323"/>
<feComposite in2="hardAlpha" operator="out"/>
<feColorMatrix type="matrix" values="0 0 0 0 0 0 0 0 0 0 0 0 0 0 0 0 0 0 0.25 0"/>
<feBlend mode="normal" in2="BackgroundImageFix" result="effect1_dropShadow_146_25"/>
<feBlend mode="normal" in="SourceGraphic" in2="effect1_dropShadow_146_25" result="shape"/>
</filter>
<linearGradient id="paint0_linear_146_25" x1="361.15" y1="852.578" x2="125.748" y2="146.46" gradientUnits="userSpaceOnUse">
<stop stop-color="#FF43C0"/>
<stop offset="1" stop-color="#FFA95C"/>
</linearGradient>
<linearGradient id="paint1_linear_146_25" x1="1751.39" y1="600.676" x2="1732.61" y2="188.045" gradientUnits="userSpaceOnUse">
<stop stop-color="#FF43C0"/>
<stop offset="1" stop-color="#FFA95C"/>
</linearGradient>
<linearGradient id="paint2_linear_146_25" x1="1751.39" y1="600.676" x2="1732.61" y2="188.045" gradientUnits="userSpaceOnUse">
<stop stop-color="#FF43C0"/>
<stop offset="1" stop-color="#FFA95C"/>
</linearGradient>
<linearGradient id="paint3_linear_146_25" x1="1751.39" y1="600.676" x2="1732.61" y2="188.045" gradientUnits="userSpaceOnUse">
<stop stop-color="#FF43C0"/>
<stop offset="1" stop-color="#FFA95C"/>
</linearGradient>
<linearGradient id="paint4_linear_146_25" x1="1751.39" y1="600.676" x2="1732.61" y2="188.045" gradientUnits="userSpaceOnUse">
<stop stop-color="#FF43C0"/>
<stop offset="1" stop-color="#FFA95C"/>
</linearGradient>
<linearGradient id="paint5_linear_146_25" x1="1751.39" y1="600.676" x2="1732.61" y2="188.045" gradientUnits="userSpaceOnUse">
<stop stop-color="#FF43C0"/>
<stop offset="1" stop-color="#FFA95C"/>
</linearGradient>
<linearGradient id="paint6_linear_146_25" x1="1751.39" y1="600.676" x2="1732.61" y2="188.045" gradientUnits="userSpaceOnUse">
<stop stop-color="#FF43C0"/>
<stop offset="1" stop-color="#FFA95C"/>
</linearGradient>
<linearGradient id="paint7_linear_146_25" x1="1751.39" y1="600.676" x2="1732.61" y2="188.045" gradientUnits="userSpaceOnUse">
<stop stop-color="#FF43C0"/>
<stop offset="1" stop-color="#FFA95C"/>
</linearGradient>
<linearGradient id="paint8_linear_146_25" x1="1751.39" y1="600.676" x2="1732.61" y2="188.045" gradientUnits="userSpaceOnUse">
<stop stop-color="#FF43C0"/>
<stop offset="1" stop-color="#FFA95C"/>
</linearGradient>
</defs>
</svg>
